# Blender v2.69 (sub 8) OBJ File: '1x1.blend'
# www.blender.org
mtllib 1x1.mtl
o Cylinder
v 0.000000 5.600000 -2.400000
v 0.000000 7.200000 -2.400000
v 0.918440 5.600000 -2.217311
v 0.918440 7.200000 -2.217311
v 1.697056 5.600000 -1.697056
v 1.697056 7.200000 -1.697056
v 2.217311 5.600000 -0.918440
v 2.217311 7.200000 -0.918440
v 2.400000 5.600000 0.000000
v 2.400000 7.200000 0.000000
v 2.217311 5.600000 0.918440
v 2.217311 7.200000 0.918440
v 1.697056 5.600000 1.697056
v 1.697056 7.200000 1.697056
v 0.918440 5.600000 2.217311
v 0.918440 7.200000 2.217311
v 0.000000 5.600000 2.400000
v 0.000000 7.200000 2.400000
v -0.918440 5.600000 2.217311
v -0.918440 7.200000 2.217311
v -1.697056 5.600000 1.697057
v -1.697056 7.200000 1.697057
v -2.217311 5.600000 0.918441
v -2.217311 7.200000 0.918441
v -2.400000 5.600000 -0.000000
v -2.400000 7.200000 -0.000000
v -2.217311 5.600000 -0.918441
v -2.217311 7.200000 -0.918441
v -1.697056 5.600000 -1.697057
v -1.697056 7.200000 -1.697057
v -0.918439 5.600000 -2.217311
v -0.918439 7.200000 -2.217311
v -4.000000 -4.000000 4.000000
v -4.000000 -4.000000 -4.000000
v 4.000000 -4.000000 -4.000000
v 4.000000 -4.000000 4.000000
v -4.000000 5.600000 4.000000
v -4.000000 5.600000 -4.000000
v 4.000000 5.600000 -4.000000
v 4.000000 5.600000 4.000000
v -2.400000 -4.000000 2.400000
v -2.400000 -4.000000 -2.400000
v 2.400000 -4.000000 -2.400000
v 2.400000 -4.000000 2.400000
v -2.400000 4.000000 2.400000
v -2.400000 4.000000 -2.400000
v 2.400000 4.000000 -2.400000
v 2.400000 4.000000 2.400000
vt 0.848494 0.298856
vt 0.836011 0.268719
vt 0.871559 0.321921
vt 0.491656 1.000000
vt 0.393351 0.934315
vt 0.459036 0.836011
vt 0.891745 0.613074
vt 0.557340 0.613074
vt 0.557340 0.334404
vt 0.000000 0.334404
vt 0.000000 0.000000
vt 0.278670 0.000000
vt 0.278670 0.668808
vt 0.278670 0.334404
vt 0.557340 0.000000
vt 0.557340 0.055734
vt 0.613074 0.111468
vt 0.613074 0.278670
vt 0.278670 0.613074
vt 0.000000 0.613074
vt 0.724543 0.613074
vt 0.724543 0.891745
vt 0.557340 0.891745
vt 0.557341 0.334404
vt 0.780277 0.278670
vt 0.836011 0.334404
vt 0.780277 0.111468
vt 0.836011 0.055734
vt 0.111468 0.947479
vt 0.111468 0.780277
vt 0.278670 0.780277
vt 0.278670 0.668809
vt 0.557340 0.668809
vt 0.557340 0.836011
vt 0.000000 0.780277
vt 0.891745 0.891745
vt 0.987517 0.205963
vt 1.000000 0.236100
vt 1.000000 0.268719
vt 0.964452 0.321921
vt 0.934315 0.334404
vt 0.987517 0.298856
vt 0.871559 0.182898
vt 0.934315 0.170415
vt 0.964452 0.182898
vt 0.836011 0.236100
vt 0.848494 0.205963
vt 0.901696 0.170415
vt 0.901696 0.334404
vt 0.405834 0.871559
vt 0.393351 0.901696
vt 0.428900 0.848494
vt 0.521792 0.848494
vt 0.491656 0.836011
vt 0.544858 0.871559
vt 0.557341 0.901696
vt 0.557341 0.934315
vt 0.544858 0.964452
vt 0.521792 0.987517
vt 0.459036 1.000000
vt 0.428900 0.987517
vt 0.405834 0.964452
vt 0.891745 0.334404
vt 0.557341 0.613074
vt 0.278670 0.947479
vt 0.278670 0.836011
vt 0.111468 0.839391
vt 0.111468 0.871384
vt 0.055734 0.871384
vt 0.111468 0.898506
vt 0.055734 0.898506
vt 0.891745 0.052185
vt 0.891745 0.079307
vt 0.836011 0.079307
vt 0.891745 0.111300
vt 0.836011 0.111300
vt 0.891745 0.143293
vt 0.836011 0.143293
vt 0.891745 0.170415
vt 0.836011 0.170415
vt 0.000000 0.898506
vt 0.000000 0.871384
vt 0.000000 0.839391
vt 0.055734 0.839391
vt 0.000000 0.807399
vt 0.055734 0.807399
vt 0.675570 0.055734
vt 0.648448 0.055734
vt 0.648448 0.000000
vt 0.616455 0.055734
vt 0.616455 0.000000
vt 0.584463 0.055734
vt 0.584463 0.000000
vt 0.557341 0.055734
vt 0.111468 0.807399
vt 0.836011 0.052185
vt 0.055734 0.780277
vt 0.675570 0.000000
vn 0.000000 1.000000 0.000000
vn 0.000000 -1.000000 0.000000
vn -1.000000 0.000000 0.000000
vn 0.000000 0.000000 -1.000000
vn 1.000000 0.000000 0.000000
vn 0.000000 0.000000 1.000000
vn 0.000000 1.000000 -0.000003
vn 0.000000 1.000000 -0.000001
vn 0.000000 1.000000 0.000002
vn 0.000000 -1.000000 0.000001
vn 0.000000 -1.000000 -0.000003
vn 0.000000 -1.000000 -0.000001
vn 0.382683 0.000000 -0.923880
vn 0.707107 0.000000 -0.707107
vn 0.923880 0.000000 -0.382684
vn 0.923880 0.000000 -0.382683
vn 0.923879 0.000000 0.382684
vn 0.707107 0.000000 0.707107
vn 0.382684 0.000000 0.923880
vn -0.382683 0.000000 0.923880
vn -0.707107 0.000000 0.707107
vn -0.923879 0.000000 0.382684
vn -0.923880 0.000000 0.382683
vn -0.923879 0.000000 -0.382684
vn -0.923880 0.000000 -0.382684
vn -0.707107 0.000000 -0.707107
vn -0.382683 0.000000 -0.923880
vn 0.382683 0.000000 0.923880
usemtl None
s off
f 22/1/1 20/2/1 24/3/1
f 23/4/2 31/5/2 7/6/2
f 38/7/3 34/8/3 33/9/3
f 39/10/4 35/11/4 34/12/4
f 40/13/5 36/14/5 35/9/5
f 37/14/6 33/12/6 36/15/6
f 33/16/2 41/17/2 44/18/2
f 39/14/1 38/19/1 37/20/1
f 41/21/4 45/22/4 48/23/4
f 36/24/2 44/18/2 43/25/2
f 35/26/2 43/25/2 42/27/2
f 34/28/2 42/27/2 41/17/2
f 46/29/2 47/30/2 48/31/2
f 44/32/3 48/33/3 47/34/3
f 43/31/6 47/35/6 46/20/6
f 42/7/5 46/36/5 45/22/5
f 6/37/7 4/38/7 2/39/7
f 30/40/1 28/41/1 32/42/1
f 14/43/1 10/44/1 8/45/1
f 18/46/1 14/43/1 20/2/1
f 18/46/1 16/47/1 14/43/1
f 14/43/8 12/48/8 10/44/8
f 6/37/1 14/43/1 8/45/1
f 28/41/1 6/37/1 32/42/1
f 28/41/1 24/3/1 6/37/1
f 20/2/1 14/43/1 24/3/1
f 28/41/1 26/49/1 24/3/1
f 6/37/1 24/3/1 14/43/1
f 6/37/9 2/39/9 32/42/9
f 3/50/2 7/6/2 1/51/2
f 3/50/10 5/52/10 7/6/10
f 11/53/2 23/4/2 9/54/2
f 11/53/11 13/55/11 15/56/11
f 15/56/2 17/57/2 19/58/2
f 19/58/2 21/59/2 23/4/2
f 23/4/2 25/60/2 27/61/2
f 27/61/2 29/62/2 31/5/2
f 38/14/4 39/10/4 34/12/4
f 15/56/2 23/4/2 11/53/2
f 15/56/2 19/58/2 23/4/2
f 23/4/2 27/61/2 31/5/2
f 23/4/2 7/6/2 9/54/2
f 7/6/12 31/5/12 1/51/12
f 37/63/3 38/7/3 33/9/3
f 39/33/5 40/13/5 35/9/5
f 40/9/6 37/14/6 36/15/6
f 36/24/2 33/16/2 44/18/2
f 40/10/1 39/14/1 37/20/1
f 44/64/4 41/21/4 48/23/4
f 35/26/2 36/24/2 43/25/2
f 34/28/2 35/26/2 42/27/2
f 33/16/2 34/28/2 41/17/2
f 45/65/2 46/29/2 48/31/2
f 43/66/3 44/32/3 47/34/3
f 42/19/6 43/31/6 46/20/6
f 41/21/5 42/7/5 45/22/5
s 1
f 2/67/4 4/68/13 3/69/13
f 4/68/13 6/70/14 5/71/14
f 6/72/14 8/73/15 7/74/16
f 8/73/15 10/75/5 9/76/5
f 10/75/5 12/77/17 11/78/17
f 12/77/17 14/79/18 13/80/18
f 13/71/18 14/81/18 16/82/19
f 16/82/19 18/83/6 17/84/6
f 18/83/6 20/85/20 19/86/20
f 19/86/20 20/85/20 22/35/21
f 22/87/21 24/88/22 23/89/23
f 24/88/22 26/90/3 25/91/3
f 26/90/3 28/92/24 27/93/25
f 28/92/24 30/94/26 29/15/26
f 32/95/27 2/67/4 1/84/4
f 30/30/26 32/95/27 31/86/27
f 1/84/4 2/67/4 3/69/13
f 3/69/13 4/68/13 5/71/14
f 5/96/14 6/72/14 7/74/16
f 7/74/16 8/73/15 9/76/5
f 9/76/5 10/75/5 11/78/17
f 11/78/17 12/77/17 13/80/18
f 15/69/28 13/71/18 16/82/19
f 15/69/28 16/82/19 17/84/6
f 17/84/6 18/83/6 19/86/20
f 21/97/21 19/86/20 22/35/21
f 21/98/21 22/87/21 23/89/23
f 23/89/23 24/88/22 25/91/3
f 25/91/3 26/90/3 27/93/25
f 27/93/25 28/92/24 29/15/26
f 31/86/27 32/95/27 1/84/4
f 29/97/26 30/30/26 31/86/27
