# Blender v2.69 (sub 10) OBJ File: '1x1f.blend'
# www.blender.org
mtllib 1x1f.mtl
o Cube_Cube.001
v 0.000000 3.200000 -2.400000
v 0.000000 4.800000 -2.400000
v 0.918440 3.200000 -2.217311
v 0.918440 4.800000 -2.217311
v 1.697056 3.200000 -1.697056
v 1.697056 4.800000 -1.697056
v 2.217311 3.200000 -0.918440
v 2.217311 4.800000 -0.918440
v 2.400000 3.200000 0.000000
v 2.400000 4.800000 0.000000
v 2.217311 3.200000 0.918440
v 2.217311 4.800000 0.918440
v 1.697056 3.200000 1.697056
v 1.697056 4.800000 1.697056
v 0.918440 3.200000 2.217311
v 0.918440 4.800000 2.217311
v 0.000000 3.200000 2.400000
v 0.000000 4.800000 2.400000
v -0.918440 3.200000 2.217311
v -0.918440 4.800000 2.217311
v -1.697056 3.200000 1.697057
v -1.697056 4.800000 1.697057
v -2.217311 3.200000 0.918441
v -2.217311 4.800000 0.918441
v -2.400000 3.200000 -0.000000
v -2.400000 4.800000 -0.000000
v -2.217311 3.200000 -0.918441
v -2.217311 4.800000 -0.918441
v -1.697056 3.200000 -1.697057
v -1.697056 4.800000 -1.697057
v -0.918439 3.200000 -2.217311
v -0.918439 4.800000 -2.217311
v -4.000000 0.000000 4.000000
v -4.000000 0.000000 -4.000000
v 4.000000 0.000000 -4.000000
v 4.000000 0.000000 4.000000
v -4.000000 3.200000 4.000000
v -4.000000 3.200000 -4.000000
v 4.000000 3.200000 -4.000000
v 4.000000 3.200000 4.000000
v -2.400000 0.000000 2.400000
v -2.400000 0.000000 -2.400000
v 2.400000 0.000000 -2.400000
v 2.400000 0.000000 2.400000
v -2.400000 1.600000 2.400000
v -2.400000 1.600000 -2.400000
v 2.400000 1.600000 -2.400000
v 2.400000 1.600000 2.400000
vt 0.789962 0.337047
vt 0.772657 0.295267
vt 0.950718 0.176291
vt 0.922734 0.861148
vt 0.831674 0.997431
vt 0.786452 0.770087
vt 0.695391 0.772657
vt 0.540860 0.772657
vt 0.540860 0.386328
vt 0.695391 0.770087
vt 0.695391 0.386328
vt 0.849923 0.386328
vt 0.386329 0.772657
vt 0.386328 0.386328
vt 0.386328 0.540860
vt 0.000000 0.540860
vt 0.000000 0.386329
vt 0.772657 0.386328
vt 0.695391 0.309063
vt 0.695391 0.077266
vt 0.386328 0.000000
vt 0.000000 0.386328
vt 0.927188 0.616584
vt 0.849923 0.616584
vt 0.772657 0.000000
vt 0.463594 0.077266
vt 0.463594 0.309063
vt 0.154531 0.772657
vt 0.154531 0.540860
vt 0.077266 0.540860
vt 0.540860 0.849923
vt 0.309063 0.849923
vt 0.077266 0.772657
vt 0.982695 0.208267
vt 1.000000 0.250046
vt 1.000000 0.295267
vt 0.950718 0.369023
vt 0.982695 0.337047
vt 0.908939 0.386328
vt 0.863718 0.386328
vt 0.821939 0.369023
vt 0.772657 0.250046
vt 0.821939 0.176291
vt 0.789962 0.208267
vt 0.863718 0.158985
vt 0.908939 0.158985
vt 0.695391 0.906370
vt 0.695391 0.861148
vt 0.712697 0.819369
vt 0.744673 0.787393
vt 0.831674 0.770087
vt 0.873453 0.787393
vt 0.905429 0.819369
vt 0.922734 0.906370
vt 0.905429 0.948149
vt 0.873453 0.980125
vt 0.786452 0.997431
vt 0.744673 0.980125
vt 0.712697 0.948149
vt 0.849923 0.770087
vt 0.386328 0.386329
vt 0.000000 0.000000
vt 0.927188 0.386328
vt 0.386328 0.772657
vt 0.309063 0.772657
vt 0.000000 0.772657
vt 0.077266 0.857973
vt 0.000000 0.857973
vt 0.000000 0.812900
vt 0.540860 0.927188
vt 0.503260 0.927188
vt 0.503260 0.849923
vt 0.458907 0.927188
vt 0.458907 0.849923
vt 0.414555 0.927188
vt 0.414555 0.849923
vt 0.376955 0.927188
vt 0.376955 0.849923
vt 0.540860 0.936562
vt 0.540860 0.898962
vt 0.618126 0.898962
vt 0.540860 0.854609
vt 0.618126 0.854609
vt 0.540860 0.810257
vt 0.618126 0.810257
vt 0.618126 0.772657
vt 0.241171 0.849923
vt 0.203571 0.849923
vt 0.203571 0.772657
vt 0.159218 0.849923
vt 0.159218 0.772657
vt 0.114866 0.849923
vt 0.114866 0.772657
vt 0.077266 0.849923
vt 0.000000 0.901015
vt 0.000000 0.935472
vt 0.077266 0.901015
vt 0.077266 0.812900
vt 0.618126 0.936562
vt 0.241171 0.772657
vt 0.077266 0.935472
vn 0.000000 1.000000 -0.000000
vn 0.000000 -1.000000 0.000000
vn -1.000000 0.000000 0.000000
vn 0.000000 0.000000 -1.000000
vn 1.000000 0.000000 0.000000
vn 0.000000 0.000000 1.000000
vn 0.000000 1.000000 0.000003
vn 0.000000 1.000000 -0.000001
vn 0.000000 1.000000 0.000001
vn 0.000000 -1.000000 -0.000001
vn 0.000000 -1.000000 0.000001
vn 0.382683 0.000000 -0.923880
vn 0.707107 0.000000 -0.707107
vn 0.923880 0.000000 -0.382684
vn 0.923879 0.000000 -0.382683
vn 0.923879 0.000000 0.382684
vn 0.923880 0.000000 0.382683
vn 0.707107 0.000000 0.707107
vn 0.382684 0.000000 0.923880
vn 0.382684 0.000000 0.923879
vn -0.382683 0.000000 0.923880
vn -0.707107 0.000000 0.707107
vn -0.923879 0.000000 0.382684
vn -0.923880 0.000000 0.382684
vn -0.923879 0.000000 -0.382684
vn -0.707107 0.000000 -0.707107
vn -0.382683 0.000000 -0.923880
vn 0.382684 0.000000 -0.923879
usemtl None
s off
f 22/1/1 20/2/1 8/3/1
f 15/4/2 23/5/2 7/6/2
f 38/7/3 34/8/3 33/9/3
f 38/10/4 39/11/4 35/12/4
f 40/8/5 36/13/5 35/14/5
f 40/15/6 37/16/6 33/17/6
f 33/18/2 41/19/2 44/20/2
f 39/21/1 38/14/1 37/22/1
f 41/23/4 45/24/4 48/12/4
f 36/25/2 44/20/2 43/26/2
f 35/21/2 43/26/2 42/27/2
f 34/14/2 42/27/2 41/19/2
f 46/28/2 47/29/2 48/15/2
f 44/30/3 48/29/3 47/28/3
f 43/8/6 47/31/6 46/32/6
f 42/16/5 46/30/5 45/33/5
f 6/34/7 4/35/7 2/36/7
f 30/37/8 6/34/8 32/38/8
f 30/37/8 28/39/8 26/40/8
f 22/1/1 8/3/1 24/41/1
f 18/42/1 14/43/1 20/2/1
f 18/42/9 16/44/9 14/43/9
f 14/43/9 12/45/9 10/46/9
f 8/3/1 6/34/1 30/37/1
f 8/3/1 26/40/1 24/41/1
f 20/2/1 14/43/1 8/3/1
f 8/3/1 30/37/1 26/40/1
f 6/34/1 2/36/1 32/38/1
f 14/43/1 10/46/1 8/3/1
f 31/47/10 1/48/10 3/49/10
f 3/49/10 5/50/10 7/6/10
f 7/6/2 9/51/2 11/52/2
f 11/52/2 13/53/2 15/4/2
f 15/4/10 17/54/10 19/55/10
f 19/55/2 21/56/2 23/5/2
f 23/5/2 25/57/2 27/58/2
f 27/58/2 29/59/2 31/47/2
f 31/47/2 3/49/2 7/6/2
f 7/6/2 11/52/2 15/4/2
f 15/4/11 19/55/11 23/5/11
f 23/5/2 27/58/2 31/47/2
f 37/11/3 38/7/3 33/9/3
f 34/60/4 38/10/4 35/12/4
f 23/5/2 31/47/2 7/6/2
f 39/9/5 40/8/5 35/14/5
f 36/61/6 40/15/6 33/17/6
f 36/25/2 33/18/2 44/20/2
f 40/62/1 39/21/1 37/22/1
f 44/63/4 41/23/4 48/12/4
f 35/21/2 36/25/2 43/26/2
f 34/14/2 35/21/2 42/27/2
f 33/18/2 34/14/2 41/19/2
f 45/64/2 46/28/2 48/15/2
f 43/33/3 44/30/3 47/28/3
f 42/65/6 43/8/6 46/32/6
f 41/66/5 42/16/5 45/33/5
s 1
f 1/67/4 2/68/4 4/69/12
f 4/69/12 6/66/13 5/33/13
f 6/70/13 8/71/14 7/72/15
f 8/71/14 10/73/5 9/74/5
f 10/73/5 12/75/16 11/76/17
f 12/75/16 14/77/18 13/78/18
f 14/79/18 16/80/19 15/81/20
f 16/80/19 18/82/6 17/83/6
f 18/82/6 20/84/21 19/85/21
f 20/84/21 22/8/22 21/86/22
f 22/87/22 24/88/23 23/89/24
f 24/88/23 26/90/3 25/91/3
f 26/90/3 28/92/25 27/93/25
f 28/92/25 30/94/26 29/33/26
f 32/95/27 2/68/4 1/67/4
f 30/96/26 32/95/27 31/97/27
f 3/98/28 1/67/4 4/69/12
f 3/98/28 4/69/12 5/33/13
f 5/31/13 6/70/13 7/72/15
f 7/72/15 8/71/14 9/74/5
f 9/74/5 10/73/5 11/76/17
f 11/76/17 12/75/16 13/78/18
f 13/99/18 14/79/18 15/81/20
f 15/81/20 16/80/19 17/83/6
f 17/83/6 18/82/6 19/85/21
f 19/85/21 20/84/21 21/86/22
f 21/100/22 22/87/22 23/89/24
f 23/89/24 24/88/23 25/91/3
f 25/91/3 26/90/3 27/93/25
f 27/93/25 28/92/25 29/33/26
f 29/101/26 30/96/26 31/97/27
f 31/97/27 32/95/27 1/67/4
